<svg xmlns="http://www.w3.org/2000/svg" xmlns:xlink="http://www.w3.org/1999/xlink" viewBox="0 0 1750.53 580.05"><defs><style>.cls-1{fill:url(#linear-gradient);}.cls-2{fill:url(#linear-gradient-2);}.cls-3{fill:url(#linear-gradient-3);}.cls-4{fill:#fff;}.cls-5{fill:url(#linear-gradient-4);}.cls-6{fill:url(#linear-gradient-5);}.cls-7{fill:url(#linear-gradient-6);}.cls-8{fill:url(#linear-gradient-7);}</style><linearGradient id="linear-gradient" x1="3.65" y1="276.11" x2="1710.81" y2="276.11" gradientUnits="userSpaceOnUse"><stop offset="0" stop-color="#222893"/><stop offset="1" stop-color="#731c93"/></linearGradient><linearGradient id="linear-gradient-2" x1="1653.2" y1="224.12" x2="1656.72" y2="227.63" gradientUnits="userSpaceOnUse"><stop offset="0" stop-color="#ed6823"/><stop offset="1" stop-color="#ec8c22"/></linearGradient><linearGradient id="linear-gradient-3" y1="290.02" x2="1750.53" y2="290.02" gradientUnits="userSpaceOnUse"><stop offset="0" stop-color="#ff5910"/><stop offset="1" stop-color="#ff8206"/></linearGradient><linearGradient id="linear-gradient-4" x1="596.46" y1="286.26" x2="646.02" y2="236.7" xlink:href="#linear-gradient-3"/><linearGradient id="linear-gradient-5" x1="1524.85" y1="220.42" x2="1574.41" y2="170.86" xlink:href="#linear-gradient-3"/><linearGradient id="linear-gradient-6" x1="666.35" y1="156.48" x2="1509.38" y2="156.48" xlink:href="#linear-gradient-3"/><linearGradient id="linear-gradient-7" x1="859.5" y1="128.95" x2="961.45" y2="128.95" xlink:href="#linear-gradient-3"/></defs><title>Xtirachi - SVG</title><g id="Layer_2" data-name="Layer 2"><g id="Layer_1-2" data-name="Layer 1"><path class="cls-1" d="M1710.81,416.17l-59.75,6.46-77.68,8.59-7,.77-4.18,6.05-13,18.7-98.61,15.06-13.37-19.51-5.67-8.28-10.28,1-116.07,10.81-13.83,8.8.07-.12,0,.06-.19.28-.49.67c-.36.49-.74,1-1.17,1.51-.82,1-1.74,2.07-2.69,3.09a69.23,69.23,0,0,1-6.21,5.86,74.35,74.35,0,0,1-14.54,9.45,70.17,70.17,0,0,1-8.05,3.46,77.48,77.48,0,0,1-8.43,2.57c-1.45.34-2.89.7-4.37.95s-2.94.53-4.41.75-3,.35-4.49.54-3.07.25-4.61.33a119.58,119.58,0,0,1-18.61-.53,132.14,132.14,0,0,1-18.56-3.42,139.26,139.26,0,0,1-18.07-6c-2.94-1.21-5.84-2.52-8.63-3.91-1.4-.7-2.77-1.41-4.09-2.14l-1.94-1.09-.88-.53-.57-.35-8.93-5.54-9.34,4.07-75.72,33-68.11,29.92-69.14-27.39-76.86-30.25-10.81-4.26L832.9,483l-38,32.63-35.91-20-3.74-2.09-4-.25-70.58-4.48-11-.7-5.42,9.23L651.91,518.5l-56.46-7-59.88-7.36-8.36-16.55-4.05-8-8.54-.5-71.92-4.15L380,471.4l-6.46-24.83-3-11.69-11.36,2.48-66.4,14.53-58.38,12.89-9.74-27.12-4.07-11.32-9.24,7-45.2,34.45Q148,456,129.69,444.19l-41.38-26.5L46.23,390.77Q25,377.15,3.65,363.14c23.29-13.81,46.36-27,68.9-40l33.5-19.3c11.07-6.4,22-12.86,32.91-19.33l6-3.58-4-6.13L96.31,206.92l-35.7-54L90,149.29l45.39-5.71,45.39-5.76L217,133.15l11.79,21.72,16.09,29.45,8.76,16L267,187.44l27.27-26.31,19-18.4,68.91,40.13,2.66,1.55,3.27.41,98,12.18,98.07,11.89,9.39,1.13,6-8,.79-1,1-1.33c.72-.9,1.48-1.83,2.25-2.74q2.34-2.76,4.83-5.51c3.31-3.64,6.82-7.22,10.42-10.74,7.17-7,14.8-13.75,22.68-20.22a461.33,461.33,0,0,1,50.17-35.52A575.37,575.37,0,0,1,746.3,95.34c9.37-4.43,18.84-8.71,28.41-12.76s19.29-7.8,29-11.45q29.32-10.83,59.57-19.35t61.08-14.92a1056.6,1056.6,0,0,1,124.94-17.93,1093.41,1093.41,0,0,1,126.58-3.72c10.55.3,21.11.85,31.65,1.47s21.07,1.47,31.58,2.56q31.54,3,62.79,8.38t61.94,13.17q30.67,7.8,60.54,18.3c9.93,3.51,19.79,7.21,29.53,11.23s19.34,8.26,28.81,12.8,18.81,9.35,27.89,14.54c4.55,2.58,9,5.24,13.43,8q3.32,2.07,6.52,4.23c1.07.71,2.13,1.44,3.17,2.18s2.13,1.5,3,2.15l2.11,1.61,3-.3,1.21-.13,1.35-.1c.9-.07,1.83-.12,2.75-.16,1.85-.07,3.71-.1,5.58-.08,3.73,0,7.46.24,11.17.62a109.38,109.38,0,0,1,21.75,4.4c14,4.39,26.71,12,36.14,22.68a66.77,66.77,0,0,1,11.32,17.63,79.1,79.1,0,0,1,5.76,20.47,103.92,103.92,0,0,1,.77,21.69q-.35,5.48-1.23,10.89c-.28,1.8-.62,3.58-1,5.34-.19.88-.39,1.75-.59,2.61l-.33,1.25-.15.6-.14.45-.94,3.21,1.33,3.34Z"/><path class="cls-2" d="M1654.78,222.61l.38,6.55.25-1,.2-.84.35-1.62.06-.29Z"/><path class="cls-3" d="M1743.18,422.6,1656,225.43l-.06.29-.35,1.62-.2.84-.25,1-.38-6.55,1.24,2.82c.21-1,.4-2,.56-2.91.38-2.12.7-4.23,1-6.35q.81-6.33,1-12.7a122.76,122.76,0,0,0-1.8-25.55,96.5,96.5,0,0,0-7.92-24.78,83.9,83.9,0,0,0-14.9-21.61,91,91,0,0,0-20.43-16,103.17,103.17,0,0,0-23.59-9.81,123.81,123.81,0,0,0-24.77-4.29q-6.24-.46-12.49-.34c-2.09,0-4.18.12-6.28.27-1,.07-2.1.16-3.16.27l-.58.06-1.19-.81c-1.16-.77-2.31-1.52-3.46-2.25q-3.45-2.2-6.94-4.3c-4.67-2.79-9.37-5.43-14.12-8-9.5-5.13-19.17-9.87-28.93-14.37-19.54-9-39.55-16.76-59.82-23.7-10.13-3.47-20.35-6.68-30.61-9.72s-20.59-5.86-31-8.47-20.8-5-31.25-7.26-20.95-4.27-31.48-6.16c-21-3.71-42.22-6.83-63.46-9.21S1197.86,3.24,1176.51,2s-42.73-1.86-64.12-2c-5.35,0-10.7,0-16,0s-10.7.09-16,.23c-10.69.19-21.39.49-32.08,1a1090.72,1090.72,0,0,0-128,12.89q-31.85,5.17-63.36,12.68c-21,4.95-41.81,10.92-62.4,17.65-41.12,13.64-81.26,31.05-119,53.3a464.14,464.14,0,0,0-54.33,37.35c-8.61,6.94-17,14.23-25,22-4,3.9-8,7.91-11.8,12.12-1.75,1.91-3.49,3.87-5.21,5.9L490,164.8,394.91,154l-76.46-42.8-10-5.59-7.88,7.93-26.69,26.89-13.78,13.95-7.48-12.93-16.87-29-4.63-8-8.73,1.37L177.21,113,132,120.23,86.86,127.5,41.7,134.87l-16.31,2.65,9.4,13.12L82.12,216.7,125.57,277q-14,9.38-27.77,18.8c-11.18,7.65-22.3,15.28-33.25,22.88C42.6,333.85,21.19,348.74,0,363.06q19.73,14.35,39.7,29.1L79.93,422l40.92,30.23q20.63,15.14,41.51,30.24l3.95,2.85,4.29-2.94,41-28.14,7.6,24.71,2.41,7.84,8.5-1.5L297,473.48l55-9.79,5.16,23.15,2,9,9.66.86,71.75,6.45,62.81,5.53,7.9,16.79,3.47,7.37,8.47,1.26L591,544.2l67.74,10,11.1,1.64,6-9.88,12.92-21.07,55.57,4.57L788,554.65l11.21,6.49,10.15-8.5,39.42-33,66,26.64L991.48,577l7.64,3.07,7.54-3.34,75.58-33.33,66.81-29.68c.66.33,1.3.65,2,1,3.68,1.79,7.4,3.42,11.16,4.92a178.82,178.82,0,0,0,23.11,7.45,159.86,159.86,0,0,0,48.77,4.58c2.07-.15,4.13-.35,6.2-.54s4.18-.48,6.27-.84,4.16-.69,6.24-1.15,4.15-.93,6.21-1.45a116,116,0,0,0,12.23-3.93A113.4,113.4,0,0,0,1304.5,504a104,104,0,0,0,9.42-9.14c1.07-1.17,2.11-2.38,3.14-3.63l97.79-10.64L1428.7,500l6.28,8.82,10.38-1.75,115.74-19.55,7-1.19,3.75-5.69,12.59-19.09,70.17-9.34,77.45-10.48,18.43-2.51Zm-92.12,0-77.68,8.59-7,.77-4.18,6.05-13,18.7-98.61,15.06-13.37-19.51-5.67-8.28-10.28,1-116.07,10.81-13.83,8.8.07-.12,0,.06-.19.28-.49.67c-.36.49-.74,1-1.17,1.51-.82,1-1.74,2.07-2.69,3.09a69.23,69.23,0,0,1-6.21,5.86,74.35,74.35,0,0,1-14.54,9.45,70.17,70.17,0,0,1-8.05,3.46,77.48,77.48,0,0,1-8.43,2.57c-1.45.34-2.89.7-4.37.95s-2.94.53-4.41.75-3,.35-4.49.54-3.07.25-4.61.33a119.58,119.58,0,0,1-18.61-.53,132.14,132.14,0,0,1-18.56-3.42,139.26,139.26,0,0,1-18.07-6c-2.94-1.21-5.84-2.52-8.63-3.91-1.4-.7-2.77-1.41-4.09-2.14l-1.94-1.09-.88-.53-.57-.35-8.93-5.54-9.34,4.07-75.72,33-68.11,29.92-69.14-27.39-76.86-30.25-10.81-4.26L832.9,483l-38,32.63-35.91-20-3.74-2.09-4-.25-70.58-4.48-11-.7-5.42,9.23L651.91,518.5l-56.46-7-59.88-7.36-8.36-16.55-4.05-8-8.54-.5-71.92-4.15L380,471.4l-6.46-24.83-3-11.69-11.36,2.48-66.4,14.53-58.38,12.89-9.74-27.12-4.07-11.32-9.24,7-45.2,34.45Q148,456,129.69,444.19l-41.38-26.5L46.23,390.77Q25,377.15,3.65,363.14c23.29-13.81,46.36-27,68.9-40l33.5-19.3c11.07-6.4,22-12.86,32.91-19.33l6-3.58-4-6.13L96.31,206.92l-35.7-54L90,149.29l45.39-5.71,45.39-5.76L217,133.15l11.79,21.72,16.09,29.45,8.76,16L267,187.44l27.27-26.31,19-18.4,68.91,40.13,2.66,1.55,3.27.41,98,12.18,98.07,11.89,9.39,1.13,6-8,.79-1,1-1.33c.72-.9,1.48-1.83,2.25-2.74q2.34-2.76,4.83-5.51c3.31-3.64,6.82-7.22,10.42-10.74,7.17-7,14.8-13.75,22.68-20.22a461.33,461.33,0,0,1,50.17-35.52A575.37,575.37,0,0,1,746.3,95.34c9.37-4.43,18.84-8.71,28.41-12.76s19.29-7.8,29-11.45q29.32-10.83,59.57-19.35t61.08-14.92a1056.6,1056.6,0,0,1,124.94-17.93,1093.41,1093.41,0,0,1,126.58-3.72c10.55.3,21.11.85,31.65,1.47s21.07,1.47,31.58,2.56q31.54,3,62.79,8.38t61.94,13.17q30.67,7.8,60.54,18.3c9.93,3.51,19.79,7.21,29.53,11.23s19.34,8.26,28.81,12.8,18.81,9.35,27.89,14.54c4.55,2.58,9,5.24,13.43,8q3.32,2.07,6.52,4.23c1.07.71,2.13,1.44,3.17,2.18s2.13,1.5,3,2.15l2.11,1.61,3-.3,1.21-.13,1.35-.1c.9-.07,1.83-.12,2.75-.16,1.85-.07,3.71-.1,5.58-.08,3.73,0,7.46.24,11.17.62a109.38,109.38,0,0,1,21.75,4.4c14,4.39,26.71,12,36.14,22.68a66.77,66.77,0,0,1,11.32,17.63,79.1,79.1,0,0,1,5.76,20.47,103.92,103.92,0,0,1,.77,21.69q-.35,5.48-1.23,10.89c-.28,1.8-.62,3.58-1,5.34-.19.88-.39,1.75-.59,2.61l-.33,1.25-.15.6-.14.45-.94,3.21,1.33,3.34,74.21,185.91Z"/><path class="cls-4" d="M292.37,310.34q42.69-39,83.48-79.11-39.63-16.81-78.56-34.67-23.4,21.1-47.38,41.85-16.42-28.75-32.13-57.67-40.92,12.8-82.71,24.46,24.15,44.07,50,87.77-40.8,33.39-83.15,65.74,36.15,27.18,73.35,53.52,27.56-22.82,54.42-46.08,14.81,23.52,30.1,46.92,45.24-5.44,89.92-12.17Q320.11,355.89,292.37,310.34Z"/><path class="cls-4" d="M388.63,217.62q-4.65,29.83-9.29,59.69,31.55,5.61,63.18,10.59-12.9,77.53-26,155,39.28,5.35,78.67,9.76,9.25-77.19,18.46-154.39,25.67,3.44,51.38,6.45l5.91-62.3Q479.47,232.77,388.63,217.62Z"/><path class="cls-4" d="M617.9,334.74q-18.23-20.4-35.95-41Q568.83,377,555.11,460.27q41.77,6.21,83.75,11.35,8.31-84,16.35-168.07Q636.73,319.26,617.9,334.74Z"/><path class="cls-4" d="M810.42,390.13a55.12,55.12,0,0,0,22.76-16.66,57.6,57.6,0,0,0,10.17-20.33c2.44-8.81,3.16-16.88,2.24-24.2-1.3-26.18-11.1-46.16-29.11-60.18-14.35-11.26-33.63-18.52-58-22a265.36,265.36,0,0,0-83.23,1.2q-1.86,19-3.75,38c-.14,1.34-.27,2.68-.41,4q-8.42,84.58-17.18,169.14,38.52,3.45,77.13,6,1.39-35.4,2.8-70.81,28.2,44.87,58,89.23,32.88-21.63,64.89-43.89Q833.25,415,810.42,390.13Zm-58.66-45.07a39.29,39.29,0,0,1-16.26,1.31q.75-25.74,1.51-51.47a45.26,45.26,0,0,1,16.73,4.32,29.57,29.57,0,0,1,11.13,8.53,23.37,23.37,0,0,1,4.27,15.67C768.46,334.62,762.69,341.87,751.76,345.06Z"/><path class="cls-4" d="M983.56,238.33q-55.74,107.84-119.8,213.5,31.1,17.44,62.84,34.28,8.94-17.78,17.69-35.58,39.3-3,78.49-7,8.37,16.68,16.9,33.32,39.58-15.79,78.44-32.55Q1046.78,342.77,983.56,238.33Zm-15,162.14q8.28-17.43,16.36-34.9,7.44,15.78,15,31.53Q984.26,398.85,968.55,400.47Z"/><path class="cls-4" d="M1224.55,387.45c-14.92-.88-27.31-6.23-37.06-16s-13.82-20.89-12.67-33.55,7.3-23,18.38-31.24,23.7-11.94,38.3-11.11a58.18,58.18,0,0,1,29.56,9.84q14.06-23.13,27.65-46.39c-21-17.31-45.26-26.71-73-28.45-32.43-2.05-60.74,6.44-85.87,25.78a117.35,117.35,0,0,0-28.94,32.44,105.43,105.43,0,0,0-14.2,41.7,100.41,100.41,0,0,0,4.34,43.76,103.73,103.73,0,0,0,22.21,37.44,117.59,117.59,0,0,0,36.66,27,133,133,0,0,0,47.78,12.19,134.38,134.38,0,0,0,50.18-6.06,126.68,126.68,0,0,0,41.77-22.33q-14.64-22.1-29-44.33A58.09,58.09,0,0,1,1224.55,387.45Z"/><path class="cls-4" d="M1413.36,211q5.81,37.29,11.56,74.58-22,5.56-44.11,10.8-7.75-42.45-15.48-84.9-35,5.82-70.11,10.84Q1308,327.4,1320.49,432.53q41.7-5.37,83.3-11.83-6.51-35.08-13-70.18,21.33-4.49,42.6-9.24,6.16,40.08,12.26,80.16,37.71-5.37,75.36-11.64-14.22-104.93-29.34-209.71Q1452.54,206,1413.36,211Z"/><path class="cls-4" d="M1563.84,265q-22.93-13.7-45.47-27.71,12.09,82.95,23.58,166,41.92-6.51,83.78-14.13-17.1-83.24-34.46-166.41Q1577.77,244,1563.84,265Z"/><path class="cls-5" d="M656.29,261.48a34.64,34.64,0,0,1-2.5,13,35,35,0,0,1-65.1,0,34.63,34.63,0,0,1-2.49-13,35,35,0,0,1,70.09,0Z"/><path class="cls-6" d="M1584.68,195.65a34.35,34.35,0,0,1-2.5,13,35,35,0,0,1-65.09,0,34.35,34.35,0,0,1-2.5-13,35,35,0,1,1,70.09,0Z"/><path class="cls-7" d="M1052.41,96.42c-19.36,1.94-38.87,4.43-58,7.41l1.78,10c18.89-3,38.15-5.4,57.28-7.32Zm58.3-4.25.36,10.18c19.17-.88,38.58-1.24,57.69-1l.36-10.19C1149.77,90.93,1130.12,91.28,1110.71,92.17Zm116.72,1.12-1.1,10.16c19.08,1.24,38.34,3,57.25,5.35l1.81-10.09C1266.24,96.38,1246.75,94.56,1227.43,93.29ZM824.79,144.9c-18.26,6.08-36.56,12.76-54.38,19.85L775,174c17.59-7,35.65-13.59,53.68-19.61Zm518-37.54-2.55,10c18.72,3.36,37.55,7.3,56,11.71l3.24-9.84C1380.78,114.75,1361.72,110.76,1342.78,107.36ZM717.51,187.57c-17.26,8-34.46,16.66-51.16,25.65l5.88,8.67c16.47-8.87,33.48-17.4,50.51-25.34ZM1455,134.22l-3.94,9.65c18,5.42,36.07,11.43,53.65,17.87l4.63-9.43C1491.57,145.81,1473.28,139.72,1455,134.22Z"/><path class="cls-8" d="M935.51,131.62a1.64,1.64,0,0,0-1.39,1.2c-.51,1.55-1.07,3.08-1.61,4.63a13.32,13.32,0,0,1,1.92.71,3.86,3.86,0,0,1,2,4.07,3.56,3.56,0,0,1-2.82,3.24c-1.18.34-2.4.53-3.58.89a1.59,1.59,0,0,0-1,.84c-.77,1.93-1.44,3.89-2.2,6,1.76-.27,3.25-.12,4.43,1.19a3.93,3.93,0,0,1-1.83,6.53c-1.69.49-3.43.78-5.12,1.25a1.57,1.57,0,0,0-1,.86c-1.58,4.26-3.14,8.53-4.62,12.83a4.15,4.15,0,0,1-3.22,2.94c-1.09.24-2.18.47-3.28.73a3.51,3.51,0,0,1-4.57-3.79q.54-10.28,1.11-20.56c.33-6.11.66-12.22,1-18.49l-10.74,2c-4.59.84-9.19,1.67-13.78,2.57a2.61,2.61,0,0,0-1.46,1c-3.15,4.41-6.25,8.85-9.37,13.28a1.27,1.27,0,0,1-.13.19c-.65.72-4.93,1.34-5.76.83a2.45,2.45,0,0,1-1.12-2.9c1.05-5.45,2.11-10.91,3.21-16.34a2.12,2.12,0,0,0-.43-1.84c-3.35-4.38-6.67-8.79-10-13.2-1.38-1.83-.67-3.58,1.47-4.3a7.22,7.22,0,0,1,6.51.82c3.86,2.34,7.88,4.44,11.84,6.6a2.06,2.06,0,0,0,1.34.23c7.93-2.17,15.84-4.39,23.77-6.6.13,0,.26-.12.48-.22l-3.26-5.9q-7.82-14-15.62-28.08c-1.45-2.59-.4-4.92,2.5-5.6,1-.24,2-.42,3.06-.72a4,4,0,0,1,4.26,1.23c3.2,3.17,6.46,6.28,9.66,9.46a1.33,1.33,0,0,0,1.47.41c1.45-.37,2.91-.7,4.37-1,2.54-.56,4.56.5,5.15,2.69.65,2.35-.43,4.18-3,5.07a2.81,2.81,0,0,0-.44.22c1.65,1.63,3.25,3.21,4.88,4.76.16.14.57.07.85,0,1.09-.23,2.18-.51,3.28-.75a3.8,3.8,0,0,1,4.7,2.23,4,4,0,0,1-1.44,5,4.37,4.37,0,0,0-.38.31c1.36,1.33,2.69,2.67,4.09,3.93.21.2.77.12,1.13,0,4.2-1,8.38-1.92,12.57-2.9a21.41,21.41,0,0,1,13,.91,7.43,7.43,0,0,1,2.85,12.27,21.9,21.9,0,0,1-11.44,6.44C943.76,129.78,939.64,130.71,935.51,131.62Z"/></g></g></svg>